<svg xmlns="http://www.w3.org/2000/svg" viewBox="0 0 48 48" fill="none">
  <!-- 六边形房屋底座 - 高亮 -->
  <polygon points="24,5 42,17 42,37 24,45 6,37 6,17" stroke="#00F0FF" stroke-width="2.2" fill="none"/>
  <polygon points="24,10 38,19 38,35 24,42 10,35 10,19" fill="rgba(0,240,255,0.12)" stroke="#00F0FF" stroke-width="1" stroke-dasharray="3 2"/>
  <path d="M24 5 L24 18 M6 17 L42 17" stroke="#00F0FF" stroke-width="2"/>
  <rect x="19" y="26" width="10" height="12" rx="1.5" fill="rgba(0,240,255,0.25)" stroke="#00F0FF" stroke-width="1.8"/>
  <circle cx="24" cy="32" r="2" fill="#00F0FF"/>
  <circle cx="16" cy="22" r="1.5" fill="#00F0FF" opacity="0.7"/>
  <circle cx="32" cy="22" r="1.5" fill="#00F0FF" opacity="0.7"/>
  <circle cx="24" cy="5" r="2.5" fill="#00F0FF"/>
  <!-- 电路线 -->
  <path d="M16 22 L19 26 M32 22 L29 26 M24 26 L24 30" stroke="#00F0FF" stroke-width="1" opacity="0.6"/>
</svg>