<svg xmlns="http://www.w3.org/2000/svg" viewBox="0 0 48 48" fill="none">
  <!-- 胶囊主体 - 品红/蓝双色高亮 -->
  <rect x="11" y="19" width="26" height="12" rx="6" transform="rotate(-33 24 25)" fill="none" stroke="#FF00AA" stroke-width="2.2"/>
  <line x1="17" y1="33" x2="31" y2="17" stroke="#FF00AA" stroke-width="1.5"/>
  <!-- 上半部填充品红 -->
  <path d="M15.5 30 Q18 27.5 21 29 Q24.5 31.5 28 29 Q31 26.5 34 29 L36.5 26 L32 20.5 Q28.5 23 25 20 Q22 17.5 18.5 20 L15.5 24 Z" fill="rgba(255,0,170,0.25)"/>
  <!-- 下半部填充蓝色 -->
  <path d="M15.5 30 L18.5 34 Q23 37 27 34 Q30 31 34 34 L36.5 30 Q33 26 29 29 Q25 32 21 29 Q18 26 15.5 30 Z" fill="rgba(0,170,255,0.25)"/>
  <!-- 医疗十字 -->
  <line x1="23" y1="23" x2="27" y2="29" stroke="#FF00AA" stroke-width="2.2" stroke-linecap="round"/>
  <line x1="27" y1="23" x2="23" y2="29" stroke="#FF00AA" stroke-width="2.2" stroke-linecap="round"/>
  <!-- 粒子效果 -->
  <circle cx="9" cy="14" r="1.5" fill="#FF00AA" opacity="0.75"/>
  <circle cx="39" cy="36" r="1.2" fill="#FF00AA" opacity="0.5"/>
  <circle cx="37" cy="13" r="1.2" fill="#00AAFF" opacity="0.65"/>
  <circle cx="12" cy="38" r="1.3" fill="#FF00AA" opacity="0.35"/>
</svg>