<svg xmlns="http://www.w3.org/2000/svg" viewBox="0 0 48 48" fill="none">
  <!-- 取景框外框 - 绿色高亮 -->
  <rect x="7" y="11" width="34" height="26" rx="2" stroke="#00FF88" stroke-width="1.8" stroke-dasharray="4 2" opacity="0.5"/>
  <!-- 四角括号 -->
  <path d="M7 18 L7 11 L14 11" stroke="#00FF88" stroke-width="2.5" fill="none" stroke-linecap="square"/>
  <path d="M41 18 L41 11 L34 11" stroke="#00FF88" stroke-width="2.5" fill="none" stroke-linecap="square"/>
  <path d="M7 32 L7 39 L14 39" stroke="#00FF88" stroke-width="2.5" fill="none" stroke-linecap="square"/>
  <path d="M41 32 L41 39 L34 39" stroke="#00FF88" stroke-width="2.5" fill="none" stroke-linecap="square"/>
  <!-- 激光扫描线 -->
  <line x1="10" y1="25" x2="38" y2="25" stroke="#00FF88" stroke-width="1.5" opacity="0.9"/>
  <!-- 十字准星 -->
  <circle cx="24" cy="25" r="6" stroke="#00FF88" stroke-width="1.3" fill="none" opacity="0.7"/>
  <line x1="24" y1="17" x2="24" y2="21" stroke="#00FF88" stroke-width="1.8"/>
  <line x1="24" y1="29" x2="24" y2="33" stroke="#00FF88" stroke-width="1.8"/>
  <line x1="16" y1="25" x2="20" y2="25" stroke="#00FF88" stroke-width="1.8"/>
  <line x1="28" y1="25" x2="32" y2="25" stroke="#00FF88" stroke-width="1.8"/>
  <circle cx="24" cy="25" r="1.8" fill="#00FF88"/>
  <!-- HUD数据 -->
  <text x="8" y="44" font-size="4.5" fill="#00FF88" opacity="0.55" font-family="monospace">SCAN</text>
  <text x="34" y="44" font-size="4.5" fill="#00FF88" opacity="0.55" font-family="monospace">AI</text>
  <!-- 顶部摄像头指示灯 -->
  <circle cx="24" cy="7" r="2" fill="#FFEE00" opacity="0.85"/>
</svg>